<svg width="42" height="42" viewBox="0 0 42 42" fill="none" xmlns="http://www.w3.org/2000/svg">
<path fill-rule="evenodd" clip-rule="evenodd" d="M21 22.75C17.6225 22.75 14.875 20.0025 14.875 16.625C14.875 13.2475 17.6225 10.5 21 10.5C24.3775 10.5 27.125 13.2475 27.125 16.625C27.125 20.0025 24.3775 22.75 21 22.75M21 3.5C13.2808 3.5 7 9.7195 7 17.3652C7 26.9447 19.3357 37.6285 19.8607 38.0783C20.1897 38.36 20.594 38.5 21 38.5C21.406 38.5 21.8103 38.36 22.1393 38.0783C22.6643 37.6285 35 26.9447 35 17.3652C35 9.7195 28.7192 3.5 21 3.5" fill="#222B45"/>
<mask id="mask0" mask-type="alpha" maskUnits="userSpaceOnUse" x="7" y="3" width="28" height="36">
<path fill-rule="evenodd" clip-rule="evenodd" d="M21 22.75C17.6225 22.75 14.875 20.0025 14.875 16.625C14.875 13.2475 17.6225 10.5 21 10.5C24.3775 10.5 27.125 13.2475 27.125 16.625C27.125 20.0025 24.3775 22.75 21 22.75M21 3.5C13.2808 3.5 7 9.7195 7 17.3652C7 26.9447 19.3357 37.6285 19.8607 38.0783C20.1897 38.36 20.594 38.5 21 38.5C21.406 38.5 21.8103 38.36 22.1393 38.0783C22.6643 37.6285 35 26.9447 35 17.3652C35 9.7195 28.7192 3.5 21 3.5" fill="white"/>
</mask>
<g mask="url(#mask0)">
</g>
<path fill-rule="evenodd" clip-rule="evenodd" d="M21 28C14.9343 28 10 23.0657 10 17C10 10.9343 14.9343 6 21 6C27.0657 6 32 10.9343 32 17C32 23.0657 27.0657 28 21 28" fill="white"/>
<path fill-rule="evenodd" clip-rule="evenodd" d="M18.7762 12.8882L16.2489 15.4155C16.4663 15.4996 16.6458 15.6028 16.7987 15.6906L16.8477 15.7187C17.1354 15.8976 17.3065 15.9987 17.7419 15.9987C18.1774 15.9987 18.3485 15.8976 18.6362 15.7187L18.646 15.713C19.0027 15.5035 19.4839 15.2211 20.3392 15.2211C21.2023 15.2211 21.6845 15.5088 22.0344 15.7187L22.0428 15.7237C22.3256 15.8919 22.5051 15.9987 22.9286 15.9987C23.3563 15.9987 23.5352 15.8976 23.8229 15.7187C23.9162 15.6643 24.0251 15.6021 24.1417 15.5399L19.1494 10.5554C17.9441 9.35005 16.8321 8.99235 14.8881 9.00012V10.9442C16.3034 10.9364 17.1354 11.2474 17.9986 12.1106L18.7762 12.8882ZM16.0461 18.9953C15.7633 18.8271 15.5838 18.7203 15.1603 18.7203C14.7326 18.7203 14.5537 18.8214 14.266 19.0003L14.2432 19.0134C13.8804 19.222 13.4006 19.498 12.5552 19.498V17.9427C12.9907 17.9427 13.1618 17.8416 13.4495 17.6628C13.7994 17.4528 14.2815 17.1651 15.1447 17.1651C16.0079 17.1651 16.49 17.4528 16.8399 17.6628L16.8483 17.6678C17.1311 17.836 17.3107 17.9427 17.7342 17.9427C18.1696 17.9427 18.3407 17.8416 18.6284 17.6628C18.9784 17.4528 19.4605 17.1651 20.3236 17.1651C21.1868 17.1651 21.6689 17.4528 22.0188 17.6628L22.0272 17.6678C22.3101 17.836 22.4896 17.9427 22.9131 17.9427C23.3408 17.9427 23.5196 17.8416 23.8074 17.6628C24.1573 17.4528 24.6394 17.1651 25.5026 17.1651C26.3657 17.1651 26.8478 17.4528 27.1978 17.6628L27.2062 17.6678C27.489 17.836 27.6685 17.9427 28.092 17.9427V19.498C27.2366 19.4902 26.7623 19.2102 26.4124 19.0003L26.404 18.9953C26.1211 18.8271 25.9416 18.7203 25.5181 18.7203C25.0826 18.7203 24.9116 18.8214 24.6239 19.0003C24.2739 19.2102 23.7918 19.498 22.9286 19.498C22.0655 19.498 21.5834 19.2102 21.2334 19.0003L21.225 18.9953C20.9422 18.8271 20.7627 18.7203 20.3392 18.7203C19.9037 18.7203 19.7326 18.8214 19.4449 19.0003C19.095 19.2102 18.6129 19.498 17.7497 19.498C16.8866 19.498 16.4044 19.2102 16.0545 19.0003L16.0461 18.9953ZM25.5181 20.6644C24.655 20.6644 24.1728 20.9521 23.8229 21.1621C23.5352 21.3409 23.3563 21.442 22.9286 21.442C22.5051 21.442 22.3256 21.3352 22.0428 21.167L22.0344 21.1621C21.6845 20.9521 21.2023 20.6644 20.3392 20.6644C19.4839 20.6644 19.0027 20.9469 18.646 21.1563L18.6362 21.1621C18.3485 21.3409 18.1774 21.442 17.7419 21.442C17.3065 21.442 17.1354 21.3409 16.8477 21.1621C16.4978 20.9521 16.0156 20.6644 15.1525 20.6644C14.2972 20.6644 13.816 20.9469 13.4593 21.1563L13.4495 21.1621C13.1618 21.3409 12.9907 21.442 12.5552 21.442V22.9972C13.4105 22.9972 13.8917 22.7147 14.2484 22.5053L14.2582 22.4996C14.5459 22.3207 14.7248 22.2196 15.1525 22.2196C15.5802 22.2196 15.759 22.3207 16.0467 22.4996C16.3967 22.7095 16.8788 22.9972 17.7419 22.9972C18.5972 22.9972 19.0784 22.7147 19.4351 22.5053L19.4449 22.4996C19.7326 22.3207 19.9037 22.2196 20.3392 22.2196C20.7627 22.2196 20.9422 22.3264 21.225 22.4946L21.2334 22.4996C21.5834 22.7095 22.0655 22.9972 22.9286 22.9972C23.7766 22.9972 24.2493 22.7195 24.6049 22.5107L24.6239 22.4996C24.9116 22.3207 25.0826 22.2196 25.5181 22.2196C25.9416 22.2196 26.1211 22.3264 26.404 22.4946L26.4124 22.4996C26.7623 22.7095 27.2444 22.9972 28.1076 22.9972V21.442C27.6721 21.442 27.501 21.3409 27.2133 21.1621C26.8634 20.9521 26.3813 20.6644 25.5181 20.6644ZM21.8866 10.9442C21.8866 9.8705 22.757 9.00012 23.8307 9.00012C24.9043 9.00012 25.7747 9.8705 25.7747 10.9442C25.7747 12.0178 24.9043 12.8882 23.8307 12.8882C22.757 12.8882 21.8866 12.0178 21.8866 10.9442Z" fill="#222B45"/>
<line x1="10.6611" y1="21.6365" x2="31.6988" y2="14.0592" stroke="#222B45" stroke-width="2"/>
</svg>
