<svg width="42" height="42" viewBox="0 0 42 42" fill="none" xmlns="http://www.w3.org/2000/svg">
<path fill-rule="evenodd" clip-rule="evenodd" d="M21 3.5C13.2807 3.5 7 9.7195 7 17.3653C7 26.9448 19.3357 37.6285 19.8607 38.0783C20.1897 38.36 20.594 38.5 21 38.5C21.406 38.5 21.8102 38.36 22.1392 38.0783C22.6642 37.6285 35 26.9448 35 17.3653C35 9.7195 28.7192 3.5 21 3.5Z" fill="#00E096"/>
<circle cx="21" cy="17" r="8" fill="white"/>
<mask id="mask0" mask-type="alpha" maskUnits="userSpaceOnUse" x="17" y="12" width="8" height="10">
<path fill-rule="evenodd" clip-rule="evenodd" d="M20.9659 21.6666C19.8954 21.6572 18.8932 21.2372 18.1428 20.4823C16.6011 18.9309 16.6219 16.426 18.1893 14.8974L20.6622 12.4863C20.7631 12.3873 20.9008 12.3323 21.0443 12.3334C21.1879 12.3349 21.3245 12.3919 21.4243 12.492L23.8572 14.9425C25.399 16.4944 25.3782 18.9999 23.8103 20.5269C23.0477 21.2699 22.0385 21.6748 20.9669 21.6666H20.9659Z" fill="white"/>
</mask>
<g mask="url(#mask0)">
<path fill-rule="evenodd" clip-rule="evenodd" d="M20.9659 21.6666C19.8954 21.6572 18.8932 21.2372 18.1428 20.4823C16.6011 18.9309 16.6219 16.426 18.1893 14.8974L20.6622 12.4863C20.7631 12.3873 20.9008 12.3323 21.0443 12.3334C21.1879 12.3349 21.3245 12.3919 21.4243 12.492L23.8572 14.9425C25.399 16.4944 25.3782 18.9999 23.8103 20.5269C23.0477 21.2699 22.0385 21.6748 20.9669 21.6666H20.9659Z" fill="#00E096"/>
</g>
</svg>
