<svg width="42" height="42" viewBox="0 0 42 42" fill="none" xmlns="http://www.w3.org/2000/svg">
<g id="grey_pin">
<path id="&#240;&#159;&#142;&#168; Icon color" fill-rule="evenodd" clip-rule="evenodd" d="M21 14C19.5527 14 18.375 15.1777 18.375 16.625C18.375 18.0723 19.5527 19.25 21 19.25C22.4473 19.25 23.625 18.0723 23.625 16.625C23.625 15.1777 22.4473 14 21 14ZM21 22.75C17.6225 22.75 14.875 20.0025 14.875 16.625C14.875 13.2475 17.6225 10.5 21 10.5C24.3775 10.5 27.125 13.2475 27.125 16.625C27.125 20.0025 24.3775 22.75 21 22.75ZM21 3.5C13.2808 3.5 7 9.7195 7 17.3652C7 26.9447 19.3357 37.6285 19.8608 38.0783C20.1897 38.36 20.594 38.5 21 38.5C21.406 38.5 21.8103 38.36 22.1392 38.0783C22.6643 37.6285 35 26.9447 35 17.3652C35 9.7195 28.7192 3.5 21 3.5Z" fill="#979797"/>
<mask id="mask0" mask-type="alpha" maskUnits="userSpaceOnUse" x="7" y="3" width="28" height="36">
<path id="&#240;&#159;&#142;&#168; Icon color_2" fill-rule="evenodd" clip-rule="evenodd" d="M21 14C19.5527 14 18.375 15.1777 18.375 16.625C18.375 18.0723 19.5527 19.25 21 19.25C22.4473 19.25 23.625 18.0723 23.625 16.625C23.625 15.1777 22.4473 14 21 14ZM21 22.75C17.6225 22.75 14.875 20.0025 14.875 16.625C14.875 13.2475 17.6225 10.5 21 10.5C24.3775 10.5 27.125 13.2475 27.125 16.625C27.125 20.0025 24.3775 22.75 21 22.75ZM21 3.5C13.2808 3.5 7 9.7195 7 17.3652C7 26.9447 19.3357 37.6285 19.8608 38.0783C20.1897 38.36 20.594 38.5 21 38.5C21.406 38.5 21.8103 38.36 22.1392 38.0783C22.6643 37.6285 35 26.9447 35 17.3652C35 9.7195 28.7192 3.5 21 3.5Z" fill="white"/>
</mask>
<g mask="url(#mask0)">
</g>
</g>
</svg>
