<svg width="42" height="42" viewBox="0 0 42 42" fill="none" xmlns="http://www.w3.org/2000/svg">
<path fill-rule="evenodd" clip-rule="evenodd" d="M21 14C19.5527 14 18.375 15.1777 18.375 16.625C18.375 18.0723 19.5527 19.25 21 19.25C22.4472 19.25 23.625 18.0723 23.625 16.625C23.625 15.1777 22.4472 14 21 14M21 22.75C17.6225 22.75 14.875 20.0025 14.875 16.625C14.875 13.2475 17.6225 10.5 21 10.5C24.3775 10.5 27.125 13.2475 27.125 16.625C27.125 20.0025 24.3775 22.75 21 22.75M21 3.5C13.2808 3.5 7 9.7195 7 17.3652C7 26.9447 19.3357 37.6285 19.8607 38.0783C20.1897 38.36 20.594 38.5 21 38.5C21.406 38.5 21.8103 38.36 22.1393 38.0783C22.6643 37.6285 35 26.9447 35 17.3652C35 9.7195 28.7192 3.5 21 3.5" fill="#FFAA00"/>
<mask id="mask0" mask-type="alpha" maskUnits="userSpaceOnUse" x="7" y="3" width="28" height="36">
<path fill-rule="evenodd" clip-rule="evenodd" d="M21 14C19.5527 14 18.375 15.1777 18.375 16.625C18.375 18.0723 19.5527 19.25 21 19.25C22.4472 19.25 23.625 18.0723 23.625 16.625C23.625 15.1777 22.4472 14 21 14M21 22.75C17.6225 22.75 14.875 20.0025 14.875 16.625C14.875 13.2475 17.6225 10.5 21 10.5C24.3775 10.5 27.125 13.2475 27.125 16.625C27.125 20.0025 24.3775 22.75 21 22.75M21 3.5C13.2808 3.5 7 9.7195 7 17.3652C7 26.9447 19.3357 37.6285 19.8607 38.0783C20.1897 38.36 20.594 38.5 21 38.5C21.406 38.5 21.8103 38.36 22.1393 38.0783C22.6643 37.6285 35 26.9447 35 17.3652C35 9.7195 28.7192 3.5 21 3.5" fill="white"/>
</mask>
<g mask="url(#mask0)">
</g>
<path fill-rule="evenodd" clip-rule="evenodd" d="M21.75 17.75C21.75 18.164 21.414 18.5 21 18.5C20.586 18.5 20.25 18.164 20.25 17.75V14C20.25 13.586 20.586 13.25 21 13.25C21.414 13.25 21.75 13.586 21.75 14V17.75ZM21 20.75C20.586 20.75 20.25 20.414 20.25 20C20.25 19.586 20.586 19.25 21 19.25C21.414 19.25 21.75 19.586 21.75 20C21.75 20.414 21.414 20.75 21 20.75V20.75ZM21 9.5C16.8578 9.5 13.5 12.8578 13.5 17C13.5 21.1423 16.8578 24.5 21 24.5C25.1423 24.5 28.5 21.1423 28.5 17C28.5 12.8578 25.1423 9.5 21 9.5V9.5Z" fill="white"/>
<mask id="mask1" mask-type="alpha" maskUnits="userSpaceOnUse" x="13" y="9" width="16" height="16">
<path fill-rule="evenodd" clip-rule="evenodd" d="M21 9.5C16.8578 9.5 13.5 12.8578 13.5 17C13.5 21.1423 16.8578 24.5 21 24.5C25.1423 24.5 28.5 21.1423 28.5 17C28.5 12.8578 25.1423 9.5 21 9.5V9.5Z" fill="white"/>
</mask>
<g mask="url(#mask1)">
<path fill-rule="evenodd" clip-rule="evenodd" d="M21.75 17.75C21.75 18.164 21.414 18.5 21 18.5C20.586 18.5 20.25 18.164 20.25 17.75V14C20.25 13.586 20.586 13.25 21 13.25C21.414 13.25 21.75 13.586 21.75 14V17.75Z" fill="#FFAA00"/>
<path fill-rule="evenodd" clip-rule="evenodd" d="M21 20.75C20.586 20.75 20.25 20.414 20.25 20C20.25 19.586 20.586 19.25 21 19.25C21.414 19.25 21.75 19.586 21.75 20C21.75 20.414 21.414 20.75 21 20.75V20.75Z" fill="#FFAA00"/>
</g>
</svg>
