<svg width="42" height="42" viewBox="0 0 42 42" fill="none" xmlns="http://www.w3.org/2000/svg">
<path fill-rule="evenodd" clip-rule="evenodd" d="M21 3.5C13.2807 3.5 7 9.7195 7 17.3653C7 26.9448 19.3357 37.6285 19.8607 38.0783C20.1897 38.36 20.594 38.5 21 38.5C21.406 38.5 21.8102 38.36 22.1392 38.0783C22.6642 37.6285 35 26.9448 35 17.3653C35 9.7195 28.7192 3.5 21 3.5Z" fill="#FF3D71"/>
<path fill-rule="evenodd" clip-rule="evenodd" d="M21 9C16.5888 9 13 12.5888 13 17C13 21.4112 16.5888 25 21 25C25.4112 25 29 21.4112 29 17C29 12.5888 25.4112 9 21 9Z" fill="white"/>
<path fill-rule="evenodd" clip-rule="evenodd" d="M23.1657 18.0344C23.4785 18.3472 23.4785 18.8528 23.1657 19.1656C23.0097 19.3216 22.8049 19.4 22.6001 19.4C22.3953 19.4 22.1905 19.3216 22.0345 19.1656L21.0001 18.1312L19.9657 19.1656C19.8097 19.3216 19.6049 19.4 19.4001 19.4C19.1953 19.4 18.9905 19.3216 18.8345 19.1656C18.5217 18.8528 18.5217 18.3472 18.8345 18.0344L19.8689 17L18.8345 15.9656C18.5217 15.6528 18.5217 15.1472 18.8345 14.8344C19.1473 14.5216 19.6529 14.5216 19.9657 14.8344L21.0001 15.8688L22.0345 14.8344C22.3473 14.5216 22.8529 14.5216 23.1657 14.8344C23.4785 15.1472 23.4785 15.6528 23.1657 15.9656L22.1313 17L23.1657 18.0344Z" fill="#FF3D71"/>
</svg>
